<?xml version="1.0" encoding="utf-8"?>
<!-- Generator: Adobe Illustrator 16.0.0, SVG Export Plug-In . SVG Version: 6.00 Build 0)  -->
<!DOCTYPE svg PUBLIC "-//W3C//DTD SVG 1.1//EN" "http://www.w3.org/Graphics/SVG/1.1/DTD/svg11.dtd">
<svg version="1.1" id="Layer_1" xmlns="http://www.w3.org/2000/svg" xmlns:xlink="http://www.w3.org/1999/xlink" x="0px" y="0px"
	 width="14px" height="14px" viewBox="0 0 14 14" enable-background="new 0 0 14 14" xml:space="preserve">
<g>
	<path d="M13.471,12.852l-1.12-7.133c-0.203-1.059-0.986-1.024-0.986-1.024H2.73C1.82,4.748,1.711,5.718,1.711,5.718l-1.2,7.133
		C0.394,13.788,1.594,14,1.594,14h10.957C13.713,13.934,13.471,12.852,13.471,12.852z M7.2,12.103c-1.5,0-2.718-1.218-2.718-2.719
		S5.7,6.665,7.2,6.665c1.502,0,2.721,1.218,2.721,2.719S8.702,12.103,7.2,12.103z"/>
	<circle cx="7.199" cy="9.372" r="0.395"/>
	<path d="M7.725,8.782C7.686,8.849,7.598,8.869,7.528,8.828l0,0C7.458,8.787,7.434,8.7,7.474,8.633l0.791-1.34
		c0.038-0.065,0.127-0.086,0.196-0.045l0,0c0.07,0.042,0.094,0.129,0.055,0.193L7.725,8.782z"/>
	<path d="M13.988,1.197h-14c0,0,0.514,1.12,3.995,1.682v1.229h1.691V3.056C6.104,3.081,6.552,3.1,7.046,3.1
		c0.439,0,0.846-0.013,1.232-0.033v1.004h1.689V2.905C13.612,2.363,13.988,1.197,13.988,1.197z"/>
</g>
</svg>
