<?xml version="1.0" encoding="utf-8"?>
<!-- Generator: Adobe Illustrator 23.0.0, SVG Export Plug-In . SVG Version: 6.00 Build 0)  -->
<svg version="1.1" id="Layer_1" xmlns="http://www.w3.org/2000/svg" xmlns:xlink="http://www.w3.org/1999/xlink" x="0px" y="0px"
	 viewBox="0 0 24 24" style="enable-background:new 0 0 24 24;" xml:space="preserve">
<style type="text/css">
	.st0{fill:#ED1B25;}
	.st1{fill:#FFFFFF;}
</style>
<path class="st0" d="M20.5,23.67h-17c-1.65,0-3-1.35-3-3v-17c0-1.65,1.35-3,3-3h17c1.65,0,3,1.35,3,3v17
	C23.5,22.32,22.15,23.67,20.5,23.67z"/>
<path class="st1" d="M6.11,11.75c-1.43,0.01-2.32-0.7-2.37-2.04C3.67,7.66,4.7,6.09,6.37,5.02c1.42-0.92,3.16-1.11,4.83-1.12
	c1.48-0.02,2.96,0.11,4.44,0.13c1.47,0.03,2.94,0.01,4.41,0.01c-0.02,1.44-1.4,2.68-2.95,2.49c-1.35-0.16-2.69-0.4-4.03-0.6
	c-0.14-0.02-0.28-0.04-0.49-0.07c-0.38,1.62-0.76,3.22-1.16,4.92c1.19,0,2.33,0,3.44,0c0.04,0.12,0.07,0.16,0.07,0.19
	c-0.22,1.2-0.22,1.2-1.44,1.2c-0.79,0-1.58,0-2.4,0c-0.54,2.3-1.06,4.54-1.58,6.79c-0.35,1.48-0.34,1.48-1.89,1.48
	c-0.34,0-0.68,0-1.16,0c1.18-5.03,2.34-9.98,3.5-14.94C8.22,5.06,6.5,6.15,6.02,8.01C5.7,9.23,5.6,10.48,6.11,11.75z"/>
</svg>
