<?xml version="1.0" encoding="utf-8"?>
<!-- Generator: Adobe Illustrator 23.0.0, SVG Export Plug-In . SVG Version: 6.00 Build 0)  -->
<svg version="1.1" id="Layer_1" xmlns="http://www.w3.org/2000/svg" xmlns:xlink="http://www.w3.org/1999/xlink" x="0px" y="0px"
	 viewBox="0 0 24 24" style="enable-background:new 0 0 24 24;" xml:space="preserve">
<style type="text/css">
	.st0{fill:#22B251;}
</style>
<g>
	<path class="st0" d="M6.04,9.01c0,0.23,0,0.46,0,0.71C6.02,9.7,6,9.7,5.98,9.69c-0.61-0.25-1.24-0.38-1.9-0.35
		C3.2,9.37,2.4,9.62,1.73,10.2C1,10.82,0.66,11.62,0.7,12.58c0.02,0.49,0.11,0.96,0.32,1.41c0.38,0.83,1.02,1.37,1.89,1.63
		c1.05,0.32,2.04,0.17,2.97-0.43c0.22-0.14,0.21-0.15,0.21-0.41c0-0.66,0-1.32,0-1.99c0-0.03,0-0.06,0-0.09c-0.77,0-1.54,0-2.31,0
		c0-0.21,0-0.41,0-0.61c0.99,0,1.98,0,2.97,0c0,0.03,0,0.05,0,0.08c0,1.01,0,2.01,0,3.02c0,0.04-0.02,0.09-0.04,0.12
		c-0.25,0.32-0.57,0.53-0.93,0.7c-0.69,0.32-1.43,0.45-2.19,0.41c-0.65-0.04-1.25-0.21-1.8-0.55c-0.54-0.33-0.93-0.8-1.23-1.35
		C0.27,14,0.08,13.47,0.02,12.89c-0.07-0.73,0.07-1.43,0.42-2.07c0.44-0.8,1.07-1.42,1.91-1.81c0.43-0.2,0.89-0.29,1.36-0.32
		c0.77-0.05,1.51,0.06,2.25,0.28C5.98,8.98,6.01,9,6.04,9.01z"/>
	<path class="st0" d="M15.04,15.45c0,0.01,0,0.03,0,0.05c0,0.19,0,0.38,0,0.56c0,0.04-0.01,0.06-0.05,0.07
		c-0.76,0.18-1.5,0.17-2.21-0.17c-0.57-0.27-0.98-0.72-1.25-1.28c-0.5-1.03-0.54-2.07-0.02-3.11c0.44-0.88,1.19-1.37,2.16-1.52
		c0.63-0.1,1.24-0.02,1.81,0.26c0.86,0.41,1.37,1.09,1.56,2.02c0.03,0.14,0.04,0.28,0.04,0.43c0,1.15,0,2.31,0,3.46
		c0,0.03,0,0.06,0,0.09c-0.21,0-0.41,0-0.63,0c0-0.03,0-0.05,0-0.08c0-1.05,0-2.1,0-3.15c0-0.37-0.07-0.73-0.2-1.07
		c-0.18-0.46-0.48-0.81-0.91-1.05c-0.26-0.14-0.53-0.23-0.82-0.29c-0.22-0.05-0.43-0.03-0.65-0.03c-0.09,0-0.18,0.04-0.28,0.06
		c-0.28,0.07-0.55,0.19-0.79,0.36c-0.33,0.23-0.6,0.52-0.77,0.9c-0.09,0.2-0.14,0.42-0.19,0.64c-0.06,0.27-0.04,0.54-0.04,0.81
		c0,0.14,0.04,0.29,0.07,0.43c0.02,0.11,0.04,0.22,0.08,0.33c0.04,0.1,0.09,0.2,0.14,0.29c0.17,0.29,0.39,0.55,0.66,0.75
		c0.47,0.36,0.99,0.51,1.58,0.42C14.57,15.56,14.8,15.5,15.04,15.45z"/>
	<path class="st0" d="M17.45,13.38c0-0.27,0.01-0.54,0-0.8c-0.01-0.15,0.04-0.27,0.14-0.38c0.54-0.61,1.1-1.19,1.77-1.67
		c0.54-0.39,1.13-0.58,1.79-0.54c1.18,0.06,2.17,0.68,2.64,1.94c0.22,0.59,0.26,1.19,0.16,1.81c-0.06,0.35-0.14,0.7-0.31,1.02
		c-0.3,0.54-0.74,0.92-1.29,1.18c-0.77,0.36-1.57,0.43-2.38,0.14c-0.73-0.26-1.24-0.77-1.59-1.45c-0.01-0.02-0.01-0.05,0-0.06
		c0.15-0.18,0.3-0.36,0.45-0.54c0.11,0.26,0.24,0.49,0.41,0.71c0.31,0.4,0.7,0.71,1.21,0.8c0.81,0.14,1.56,0,2.19-0.57
		c0.35-0.32,0.54-0.74,0.63-1.2c0.11-0.53,0.1-1.06-0.07-1.58c-0.27-0.81-0.83-1.29-1.65-1.49c-0.64-0.16-1.23-0.05-1.78,0.31
		c-0.45,0.29-0.84,0.65-1.18,1.05c-0.33,0.38-0.64,0.78-0.96,1.17c-0.05,0.06-0.1,0.12-0.15,0.17
		C17.46,13.38,17.46,13.38,17.45,13.38z"/>
	<path class="st0" d="M6.05,10.81c-0.61-0.36-1.26-0.48-1.95-0.48c-0.4,0-0.79,0.06-1.14,0.24c-0.83,0.43-1.27,1.12-1.24,2.06
		c0.02,0.5,0.18,0.95,0.47,1.36c0.31,0.44,0.75,0.67,1.27,0.76c0.5,0.08,0.98,0.03,1.46-0.13c0.14-0.05,0.14-0.05,0.14-0.19
		c0-0.41,0-0.83,0-1.24c0-0.03,0-0.06,0-0.09c0.22,0,0.44,0,0.66,0c0,0.03,0,0.05,0,0.08c0,0.53,0,1.07,0,1.6
		c0,0.06-0.02,0.1-0.06,0.13c-0.21,0.19-0.45,0.31-0.72,0.39c-0.49,0.15-1,0.2-1.51,0.14c-0.51-0.06-0.95-0.28-1.33-0.61
		c-0.53-0.45-0.87-1.01-1-1.69c-0.12-0.62-0.01-1.2,0.22-1.78c0.22-0.55,0.62-0.92,1.11-1.21c0.62-0.37,1.3-0.51,2.02-0.46
		c0.53,0.03,1.04,0.17,1.54,0.35c0.05,0.02,0.06,0.04,0.06,0.09c0,0.21,0,0.42,0,0.63C6.05,10.76,6.05,10.78,6.05,10.81z"/>
	<path class="st0" d="M17.45,15.01c0-0.26,0.01-0.5,0-0.73c-0.01-0.18,0.04-0.32,0.17-0.46c0.54-0.61,1.06-1.23,1.6-1.83
		c0.21-0.23,0.44-0.45,0.68-0.65c0.35-0.3,0.78-0.39,1.23-0.36c0.37,0.03,0.71,0.13,1.02,0.35c0.38,0.27,0.61,0.64,0.72,1.09
		c0.13,0.53,0.1,1.07-0.06,1.59c-0.17,0.58-0.57,0.94-1.14,1.12c-0.23,0.07-0.47,0.12-0.72,0.12c-0.32,0.01-0.62-0.09-0.89-0.25
		c-0.5-0.28-0.79-0.72-0.94-1.27c-0.01-0.02,0-0.05,0.01-0.07c0.19-0.22,0.38-0.44,0.59-0.68c0,0.04,0,0.07,0,0.09
		c0,0.3,0.05,0.59,0.18,0.86c0.21,0.41,0.55,0.61,1,0.65c0.24,0.02,0.48,0,0.7-0.11c0.32-0.15,0.5-0.42,0.6-0.74
		c0.14-0.45,0.13-0.9-0.03-1.35c-0.16-0.44-0.61-0.74-1.07-0.77c-0.34-0.02-0.62,0.1-0.88,0.3c-0.31,0.23-0.57,0.52-0.82,0.81
		c-0.64,0.74-1.27,1.49-1.9,2.24C17.49,14.97,17.48,14.98,17.45,15.01z"/>
	<path class="st0" d="M15.42,16.3c0-0.04,0-0.06,0-0.09c0-1.11,0-2.21,0-3.32c0-0.62-0.49-1.16-1.1-1.23
		c-0.49-0.06-0.88,0.1-1.19,0.47c-0.16,0.19-0.24,0.41-0.26,0.65c-0.02,0.33,0.01,0.65,0.1,0.97c0.12,0.44,0.43,0.69,0.85,0.8
		c0.44,0.12,0.84,0.04,1.2-0.26c0,0,0.01,0,0.02-0.01c0,0.02,0,0.04,0,0.06c0,0.19,0,0.38,0,0.57c0,0.06-0.02,0.1-0.08,0.13
		c-0.37,0.17-0.76,0.25-1.17,0.19c-0.56-0.08-0.95-0.4-1.26-0.84c-0.08-0.12-0.15-0.24-0.21-0.37c-0.04-0.08-0.05-0.17-0.06-0.25
		c-0.07-0.42-0.09-0.84-0.01-1.26c0.1-0.5,0.38-0.89,0.81-1.17c0.37-0.25,0.78-0.36,1.23-0.32c0.24,0.02,0.46,0.08,0.68,0.18
		c0.31,0.13,0.56,0.33,0.75,0.6c0.13,0.18,0.21,0.39,0.27,0.6c0.08,0.3,0.09,0.61,0.09,0.92c0,0.97,0,1.93,0,2.9
		c0,0.12,0.01,0.1-0.11,0.1C15.79,16.3,15.61,16.3,15.42,16.3z"/>
	<path class="st0" d="M8.09,16.24c-0.23,0-0.44,0-0.66,0c0-0.02,0-0.04,0-0.06c0-1.15-0.01-2.29,0-3.44
		c0.01-1.11,0.53-1.92,1.5-2.44c0.26-0.14,0.54-0.2,0.83-0.25c0.49-0.09,0.98-0.09,1.46,0.05c0.23,0.07,0.5,0.19,0.61,0.29
		c-0.13,0.15-0.26,0.29-0.4,0.44c-0.01,0.01-0.05,0.02-0.07,0.01c-0.39-0.16-0.8-0.23-1.22-0.21c-0.53,0.03-1,0.2-1.39,0.56
		c-0.36,0.34-0.58,0.77-0.65,1.27c-0.01,0.1-0.02,0.21-0.02,0.31c0,1.13,0,2.25,0,3.38C8.09,16.17,8.09,16.2,8.09,16.24z"/>
	<path class="st0" d="M11.2,11.19c-0.1,0.16-0.21,0.32-0.3,0.48c-0.03,0.04-0.06,0.03-0.09,0.03c-0.21-0.01-0.42-0.05-0.62-0.04
		c-0.59,0.03-0.96,0.37-1.06,0.95c-0.03,0.18-0.04,0.36-0.04,0.54c0,1.01,0,2.03,0,3.04c0,0.02,0,0.03,0,0.05c-0.22,0-0.44,0-0.66,0
		c0-0.02,0-0.04,0-0.06c0.01-1.12,0.03-2.25,0.04-3.37c0.01-0.53,0.18-0.99,0.58-1.34c0.26-0.24,0.58-0.37,0.93-0.44
		c0.41-0.08,0.8-0.03,1.18,0.13C11.16,11.16,11.18,11.17,11.2,11.19z"/>
	<path class="st0" d="M18.01,7.41c0.22,0,0.44,0,0.66,0c0,0.02,0,0.05,0,0.07c0,1.01,0,2.02,0,3.04c0,0.05-0.01,0.08-0.05,0.11
		c-0.2,0.16-0.39,0.33-0.58,0.49c-0.01,0.01-0.02,0.01-0.03,0.02C18.01,9.89,18.01,8.65,18.01,7.41z"/>
	<path class="st0" d="M19.06,10.29c0-0.97,0-1.92,0-2.88c0.22,0,0.44,0,0.66,0c0,0.02,0,0.05,0,0.07c0,0.76,0,1.51,0,2.27
		c0,0.05-0.01,0.08-0.05,0.11C19.46,10,19.27,10.14,19.06,10.29z"/>
</g>
</svg>
