<?xml version="1.0" encoding="utf-8"?>
<!-- Generator: Adobe Illustrator 23.0.0, SVG Export Plug-In . SVG Version: 6.00 Build 0)  -->
<svg version="1.1" id="Layer_1" xmlns="http://www.w3.org/2000/svg" xmlns:xlink="http://www.w3.org/1999/xlink" x="0px" y="0px"
	 viewBox="0 0 24 24" style="enable-background:new 0 0 24 24;" xml:space="preserve">
<style type="text/css">
	.st0{fill:#EA1C07;}
	.st1{fill:#FFFFFF;}
</style>
<path class="st0" d="M19,24H5c-2.75,0-5-2.25-5-5L0,5c0-2.75,2.25-5,5-5l14,0c2.75,0,5,2.25,5,5v14C24,21.75,21.75,24,19,24z"/>
<g>
	<path class="st1" d="M18.3,11.19c-0.14-0.11-0.24-0.17-0.32-0.24c-0.62-0.5-1.42-0.57-2.02-0.17c-0.61,0.41-0.96,1.36-0.75,2.06
		c0.08,0.27,0.26,0.44,0.53,0.53c0.75,0.26,1,0.09,1.07-0.73c-0.27,0-0.53,0-0.83,0c0.06-0.27,0.1-0.51,0.17-0.74
		c0.02-0.06,0.1-0.13,0.15-0.13c0.63-0.01,1.25-0.01,1.93-0.01c-0.17,0.73-0.32,1.42-0.49,2.11c-0.01,0.06-0.1,0.12-0.16,0.14
		c-0.7,0.23-1.4,0.38-2.14,0.26c-0.99-0.16-1.55-0.84-1.48-1.85c0.12-1.78,1.47-2.93,3.26-2.73c0.41,0.04,0.8,0.19,1.2,0.3
		c0.06,0.02,0.15,0.14,0.14,0.2C18.48,10.51,18.39,10.81,18.3,11.19z"/>
	<path class="st1" d="M1.69,14.21c0.21-0.93,0.41-1.82,0.61-2.7c0.11-0.5,0.23-1,0.34-1.5c0.04-0.18,0.11-0.25,0.31-0.25
		c0.67,0.03,1.34-0.02,2,0.06c1.13,0.14,1.53,1.27,0.8,2.16c-0.41,0.5-0.99,0.69-1.61,0.76c-0.24,0.03-0.48,0.04-0.72,0.03
		c-0.18-0.01-0.26,0.06-0.29,0.23c-0.07,0.34-0.14,0.68-0.24,1.02c-0.02,0.07-0.13,0.17-0.2,0.18C2.38,14.22,2.06,14.21,1.69,14.21z
		 M3.4,11.87c0.02,0.04,0.04,0.07,0.05,0.11c0.36-0.08,0.73-0.13,1.07-0.26c0.26-0.1,0.37-0.38,0.31-0.65
		c-0.03-0.14-0.16-0.32-0.28-0.35c-0.24-0.07-0.51-0.07-0.77-0.08c-0.04,0-0.12,0.07-0.13,0.12C3.57,11.12,3.49,11.49,3.4,11.87z"/>
	<path class="st1" d="M6.69,11.79c0.05-0.29,0.09-0.52,0.15-0.75c0.02-0.06,0.12-0.12,0.19-0.14c0.62-0.12,1.24-0.19,1.87-0.08
		c0.68,0.12,0.92,0.47,0.78,1.15c-0.15,0.68-0.31,1.36-0.46,2.04c-0.03,0.15-0.09,0.21-0.25,0.21c-0.28-0.01-0.56,0-0.85,0
		c0.01-0.11,0.01-0.19,0.01-0.25c-0.28,0.11-0.56,0.26-0.85,0.32c-0.57,0.13-1.06-0.11-1.21-0.54c-0.17-0.49,0.04-1.11,0.55-1.33
		c0.45-0.19,0.96-0.26,1.45-0.37c0.17-0.04,0.34-0.04,0.53-0.05c0.06-0.24-0.04-0.4-0.25-0.41c-0.36-0.02-0.73,0.01-1.09,0.04
		C7.08,11.64,6.91,11.72,6.69,11.79z M8.43,12.64c-0.36,0.08-0.69,0.13-1.01,0.23c-0.22,0.07-0.32,0.29-0.23,0.49
		c0.05,0.11,0.25,0.22,0.38,0.21C8.13,13.53,8.34,13.48,8.43,12.64z"/>
	<path class="st1" d="M22.3,12.18c-0.05,1.48-1.32,2.44-2.76,2.07c-0.59-0.15-0.95-0.59-0.98-1.21c-0.07-1.57,1.42-2.68,2.91-2.17
		C22.04,11.07,22.33,11.52,22.3,12.18z M21.23,12.27c-0.06-0.3-0.05-0.58-0.37-0.71c-0.25-0.11-0.58-0.01-0.79,0.22
		c-0.08,0.09-0.17,0.18-0.19,0.29c-0.07,0.33-0.16,0.67-0.17,1.01c-0.01,0.33,0.22,0.49,0.56,0.48c0.28-0.02,0.51-0.16,0.63-0.4
		C21.04,12.87,21.12,12.56,21.23,12.27z"/>
	<path class="st1" d="M13.38,11.85c-0.38-0.12-0.72-0.26-1.07-0.34c-0.2-0.04-0.42,0.01-0.62,0.06c-0.08,0.02-0.18,0.15-0.19,0.24
		c-0.01,0.06,0.11,0.18,0.19,0.21c0.28,0.1,0.58,0.16,0.86,0.25c0.36,0.12,0.7,0.27,0.74,0.71c0.05,0.48-0.17,0.83-0.59,1.04
		c-0.9,0.44-1.81,0.32-2.75,0.03c0.08-0.33,0.14-0.61,0.22-0.94c0.11,0.06,0.18,0.1,0.25,0.14c0.44,0.28,0.93,0.38,1.44,0.29
		c0.13-0.02,0.24-0.16,0.36-0.24c-0.11-0.09-0.2-0.22-0.32-0.27c-0.3-0.11-0.62-0.16-0.91-0.28c-0.67-0.27-0.81-1.06-0.24-1.51
		c0.27-0.22,0.64-0.35,0.99-0.42c0.61-0.13,1.23-0.04,1.84,0.19C13.5,11.31,13.44,11.6,13.38,11.85z"/>
</g>
</svg>
