<?xml version="1.0" encoding="utf-8"?>
<!-- Generator: Adobe Illustrator 23.0.0, SVG Export Plug-In . SVG Version: 6.00 Build 0)  -->
<svg version="1.1" id="Layer_1" xmlns="http://www.w3.org/2000/svg" xmlns:xlink="http://www.w3.org/1999/xlink" x="0px" y="0px"
	 viewBox="0 0 24 24" style="enable-background:new 0 0 24 24;" xml:space="preserve">
<style type="text/css">
	.st0{fill:#E4242B;}
</style>
<path class="st0" d="M19.77,24H4.23C1.89,24,0,22.11,0,19.77L0,4.23C0,1.89,1.89,0,4.23,0l15.54,0C22.11,0,24,1.89,24,4.23v15.54
	C24,22.11,22.11,24,19.77,24z M3.02,18.49c0.07,0.01,0.14,0.03,0.21,0.03c5.73,0.01,11.46,0.02,17.18,0.04
	c0.28,0,0.5-0.09,0.51-0.36c0.03-0.7,0.04-1.41,0.01-2.11c-0.01-0.28-0.23-0.4-0.55-0.35c-2.56,0.4-5.12,0.8-7.68,1.19
	c-1.83,0.28-3.67,0.55-5.5,0.83c-1.39,0.21-2.79,0.43-4.18,0.65C3.02,18.44,3.02,18.47,3.02,18.49z M5.09,13.42
	c0.86,0,1.71,0,2.57,0c4.21,0.01,8.41,0.01,12.62,0.03c0.35,0,0.66-0.06,0.68-0.45c0.04-0.65,0.04-1.3,0-1.94
	c-0.02-0.31-0.21-0.5-0.62-0.42c-1.66,0.32-3.33,0.59-5,0.88c-2.61,0.45-5.22,0.91-7.83,1.36c-0.81,0.14-1.61,0.29-2.42,0.44
	C5.09,13.35,5.09,13.39,5.09,13.42z M7.15,8.25c0.07,0.01,0.13,0.02,0.2,0.02c4.35,0,8.71,0,13.06,0.01c0.34,0,0.53-0.17,0.55-0.45
	c0.03-0.66,0.03-1.32-0.01-1.98c-0.02-0.32-0.24-0.46-0.6-0.38c-0.88,0.2-1.76,0.37-2.64,0.55c-2.83,0.58-5.65,1.15-8.48,1.73
	c-0.7,0.14-1.4,0.29-2.1,0.44C7.14,8.2,7.14,8.23,7.15,8.25z"/>
</svg>
