<?xml version="1.0" encoding="utf-8"?>
<!-- Generator: Adobe Illustrator 23.0.0, SVG Export Plug-In . SVG Version: 6.00 Build 0)  -->
<svg version="1.1" id="Layer_1" xmlns="http://www.w3.org/2000/svg" xmlns:xlink="http://www.w3.org/1999/xlink" x="0px" y="0px"
	 viewBox="0 0 24 24" style="enable-background:new 0 0 24 24;" xml:space="preserve">
<style type="text/css">
	.st0{fill:#666666;}
</style>
<g>
	<g>
		<ellipse class="st0" cx="12" cy="9.45" rx="12" ry="4.39"/>
		<path class="st0" d="M4.63,18.82L4.63,18.82c-0.57,0-1.02-0.46-1.02-1.02v-5.46c0-0.57,0.46-1.02,1.02-1.02h0
			c0.57,0,1.02,0.46,1.02,1.02v5.46C5.66,18.36,5.2,18.82,4.63,18.82z"/>
		<path class="st0" d="M12.29,21.94L12.29,21.94c-0.59,0-1.07-0.48-1.07-1.07v-6.93c0-0.59,0.48-1.07,1.07-1.07h0
			c0.59,0,1.07,0.48,1.07,1.07v6.93C13.37,21.46,12.89,21.94,12.29,21.94z"/>
		<path class="st0" d="M19.56,18.52L19.56,18.52c-0.57,0-1.02-0.46-1.02-1.02v-7.02c0-0.57,0.46-1.02,1.02-1.02h0
			c0.57,0,1.02,0.46,1.02,1.02v7.02C20.59,18.07,20.13,18.52,19.56,18.52z"/>
	</g>
</g>
</svg>
