<?xml version="1.0" encoding="utf-8"?>
<!-- Generator: Adobe Illustrator 23.0.0, SVG Export Plug-In . SVG Version: 6.00 Build 0)  -->
<svg version="1.1" id="Layer_1" xmlns="http://www.w3.org/2000/svg" xmlns:xlink="http://www.w3.org/1999/xlink" x="0px" y="0px"
	 viewBox="0 0 24 24" style="enable-background:new 0 0 24 24;" xml:space="preserve">
<style type="text/css">
	.st0{fill:#E71A23;}
	.st1{fill:#FFFFFF;}
</style>
<path class="st0" d="M21,24H3c-1.65,0-3-1.35-3-3L0,3c0-1.65,1.35-3,3-3l18,0c1.65,0,3,1.35,3,3v18C24,22.65,22.65,24,21,24z"/>
<g>
	<path class="st1" d="M11.94,5.93c1.12,0,2.21,0,3.33,0c-0.07,0.52-0.14,1.03-0.21,1.53c-0.39,2.82-0.78,5.63-1.16,8.45
		c-0.08,0.6-0.16,1.2-0.25,1.8c-0.01,0.07-0.1,0.18-0.16,0.18c-1.01,0.01-2.01,0-3.02,0c-0.01,0-0.03-0.01-0.08-0.04
		c0.23-1.65,0.45-3.32,0.68-5c-1.55,0-3.08,0-4.63,0c-0.23,1.68-0.46,3.35-0.69,5.03c-1.14,0-2.26,0-3.43,0
		C2.88,13.9,3.45,9.92,4.01,5.93c1.14,0,2.24,0,3.39,0c-0.2,1.45-0.39,2.88-0.59,4.34c1.54,0,3.06,0,4.62,0
		C11.6,8.84,11.77,7.4,11.94,5.93z"/>
	<path class="st1" d="M17.14,18.06c-0.17,0-0.35,0.03-0.51-0.01c-0.21-0.05-0.44-0.1-0.59-0.24c-0.43-0.39-0.83-0.81-1.24-1.22
		c-0.15-0.14-0.17-0.28-0.04-0.45c0.25-0.36,0.48-0.72,0.71-1.09c0.13-0.2,0.31-0.32,0.54-0.34c1.61-0.19,3.16-0.59,4.66-1.18
		c0.26-0.1,0.37-0.05,0.42,0.22c0.19,1,0.39,2,0.57,3.01c0.06,0.33-0.03,0.47-0.35,0.56C19.95,17.73,18.56,17.95,17.14,18.06z
		 M18.99,16.85c0.2-0.05,0.36-0.08,0.53-0.12c-0.05-0.35-0.11-0.66-0.14-0.98c-0.02-0.2,0.09-0.33,0.29-0.35
		c0.2-0.02,0.24,0.14,0.27,0.28c0.06,0.29,0.11,0.59,0.16,0.9c0.19-0.06,0.35-0.1,0.53-0.16c-0.07-0.41-0.12-0.81-0.21-1.19
		c-0.08-0.32-0.37-0.46-0.67-0.32c-0.16,0.07-0.3,0.21-0.45,0.31c-0.19-0.23-0.37,0.04-0.58,0.02C18.81,15.79,18.9,16.3,18.99,16.85
		z M16.59,15.64c0.34,0.45,0.68,0.91,1.02,1.36c0.09,0.11,0.37,0.07,0.41-0.06c0.17-0.53,0.34-1.07,0.51-1.63
		c-0.1,0.01-0.15,0.02-0.2,0.02c-0.3,0.01-0.47,0.16-0.5,0.47c-0.02,0.15-0.08,0.3-0.14,0.5c-0.1-0.14-0.18-0.23-0.23-0.33
		c-0.17-0.39-0.46-0.48-0.84-0.35C16.62,15.61,16.61,15.62,16.59,15.64z M15.83,16.79c0.21,0,0.37-0.15,0.36-0.35
		c0-0.23-0.22-0.44-0.47-0.45c-0.21-0.01-0.37,0.14-0.38,0.33C15.34,16.57,15.58,16.79,15.83,16.79z"/>
</g>
</svg>
