<?xml version="1.0" encoding="utf-8"?>
<!-- Generator: Adobe Illustrator 23.0.0, SVG Export Plug-In . SVG Version: 6.00 Build 0)  -->
<svg version="1.1" id="Layer_1" xmlns="http://www.w3.org/2000/svg" xmlns:xlink="http://www.w3.org/1999/xlink" x="0px" y="0px"
	 viewBox="0 0 24 24" style="enable-background:new 0 0 24 24;" xml:space="preserve">
<style type="text/css">
	.st0{fill:#F2941F;}
	.st1{fill:#201D1E;}
</style>
<path class="st0" d="M12.09,23.42c-5.33,0-9.4-3.64-10.65-5.15c-0.35-0.39,0.05-0.58,0.28-0.42c3.74,2.27,9.57,6,18.98,1.54
	c0.38-0.19,0.68,0.1,0.28,0.61C20.59,20.51,17.42,23.42,12.09,23.42z"/>
<path class="st1" d="M18.33,12.28v-7.5c0-1.29-1.25-4.19-5.72-4.19c-4.48,0-6.86,2.8-6.86,5.32l3.75,0.35
	c0.83-2.52,2.76-2.52,2.76-2.52c2.07-0.01,1.81,1.52,1.81,3.52c-2.48,0.09-8.64,0.79-8.64,5.99c0,5.58,7.05,5.81,9.35,2.2
	c0.33,0.52,1.8,1.91,2.31,2.39l2.89-2.85C19.97,14.97,18.33,13.68,18.33,12.28z M14.06,11.67c0,4.08-4.29,3.47-4.29,0.88
	c0-2.41,2.57-2.89,4.29-2.95V11.67z"/>
<path class="st0" d="M21.94,21.69c-0.28,0.23-0.48,0.14-0.33-0.19c0.15-0.33,0.98-2.37,0.65-2.8c-0.33-0.42-1.89-0.22-2.45-0.16
	c-0.55,0.05-0.66,0.1-0.71-0.02c-0.12-0.29,1.11-0.79,1.91-0.89c0.8-0.09,2.09-0.04,2.34,0.29c0.19,0.26,0,1.38-0.33,2.2
	C22.68,20.92,22.2,21.48,21.94,21.69z"/>
</svg>
