<?xml version="1.0" encoding="utf-8"?>
<!-- Generator: Adobe Illustrator 23.0.0, SVG Export Plug-In . SVG Version: 6.00 Build 0)  -->
<svg version="1.1" id="Layer_1" xmlns="http://www.w3.org/2000/svg" xmlns:xlink="http://www.w3.org/1999/xlink" x="0px" y="0px"
	 viewBox="0 0 24 24" style="enable-background:new 0 0 24 24;" xml:space="preserve">
<style type="text/css">
	.st0{fill:#FF0002;}
	.st1{fill:#FFFFFF;}
</style>
<path class="st0" d="M19,24H5c-2.75,0-5-2.25-5-5L0,5c0-2.75,2.25-5,5-5l14,0c2.75,0,5,2.25,5,5v14C24,21.75,21.75,24,19,24z"/>
<g>
	<path class="st1" d="M12.55,11.09c-0.25,0.65-0.45,1.23-0.71,1.77c-0.06,0.13-0.35,0.21-0.54,0.22c-1,0.02-2.01,0.05-3.01,0
		c-0.57-0.03-0.84,0.16-0.9,0.71c-0.02,0.21-0.1,0.41-0.17,0.67c0.2,0,0.33,0,0.46,0c2.23-0.02,4.45-0.03,6.68-0.05
		c0.29,0,0.59-0.05,0.87-0.12c0.6-0.15,1.02-0.53,1.12-1.15c0.09-0.59-0.22-1.03-0.69-1.34c-0.57-0.38-1.18-0.7-1.76-1.07
		c-0.81-0.52-1.51-1.16-1.78-2.12c-0.36-1.32,0.05-2.49,0.84-3.54c1.43-1.88,3.87-2.42,6.04-1.61c-0.27,0.63-0.52,1.26-0.84,1.86
		c-0.07,0.14-0.37,0.19-0.57,0.21c-0.45,0.04-0.91-0.06-1.34,0.05c-0.73,0.18-1.14,0.74-1.28,1.47c-0.14,0.71,0.3,1.11,0.81,1.44
		c0.56,0.36,1.15,0.68,1.72,1.03c2.92,1.8,1.95,5.31-0.11,6.49c-0.86,0.49-1.76,0.79-2.74,0.8c-2.86,0.02-5.72,0.03-8.57,0.05
		c-1.25,0.01-1.61-0.45-1.29-1.64c0.3-1.1,0.64-2.19,0.91-3.29c0.14-0.56,0.49-0.81,1.01-0.82C8.61,11.07,10.52,11.09,12.55,11.09z"
		/>
	<path class="st1" d="M17.23,19.31c0.01,0.87-0.68,1.59-1.54,1.61c-0.87,0.02-1.63-0.73-1.62-1.6c0-0.85,0.74-1.59,1.58-1.59
		C16.49,17.73,17.22,18.45,17.23,19.31z"/>
	<path class="st1" d="M8.25,20.92c-0.84-0.01-1.57-0.76-1.57-1.6c0.01-0.83,0.76-1.59,1.59-1.59c0.85,0,1.63,0.8,1.6,1.64
		C9.84,20.21,9.09,20.94,8.25,20.92z"/>
</g>
</svg>
