<?xml version="1.0" encoding="utf-8"?>
<!-- Generator: Adobe Illustrator 23.0.0, SVG Export Plug-In . SVG Version: 6.00 Build 0)  -->
<svg version="1.1" id="Layer_1" xmlns="http://www.w3.org/2000/svg" xmlns:xlink="http://www.w3.org/1999/xlink" x="0px" y="0px"
	 viewBox="0 0 24 24" style="enable-background:new 0 0 24 24;" xml:space="preserve">
<style type="text/css">
	.st0{fill:#176DB2;}
	.st1{fill:#FFFFFF;}
</style>
<path class="st0" d="M20,24H4c-2.2,0-4-1.8-4-4L0,4c0-2.2,1.8-4,4-4l16,0c2.2,0,4,1.8,4,4v16C24,22.2,22.2,24,20,24z"/>
<g>
	<path class="st1" d="M14.42,15.7c0,0.71,0.02,1.42-0.01,2.13c-0.01,0.25-0.11,0.54-0.27,0.73c-1.2,1.41-2.64,1.43-3.86,0.04
		c-0.18-0.21-0.31-0.53-0.31-0.81c-0.03-1.4-0.02-2.81-0.02-4.21c0-0.11,0.04-0.26-0.01-0.33c-0.17-0.23-0.38-0.43-0.57-0.64
		C9.18,12.82,8.92,13,8.86,13.24c-0.09,0.33-0.03,0.7-0.03,1.06c0,1.18,0.01,2.35-0.03,3.53c-0.01,0.29-0.15,0.64-0.34,0.85
		c-1.28,1.4-2.97,1.33-4.13-0.19c-0.2-0.26-0.22-0.69-0.24-1.05c-0.13-2.04-0.02-4.06,0.82-5.96c0.67-1.52,1.85-2.33,3.53-2.3
		c0.74,0.01,1.47,0.09,2.2,0.2c0.3,0.05,0.6,0.23,0.86,0.41c0.47,0.32,0.76,0.35,1.26,0.02c1.64-1.07,4.24-0.86,5.67,0.48
		c0.92,0.86,1.29,2.01,1.4,3.21c0.12,1.37,0.13,2.76,0.12,4.14c-0.02,1.38-1.73,2.44-2.94,1.82c-0.51-0.26-0.92-0.73-1.35-1.14
		c-0.11-0.11-0.11-0.36-0.12-0.54c-0.01-1.34,0-2.68-0.01-4.01c0-0.17,0.01-0.38-0.07-0.51c-0.14-0.23-0.36-0.41-0.54-0.62
		c-0.17,0.25-0.45,0.5-0.48,0.77c-0.07,0.62-0.03,1.25-0.03,1.88C14.42,15.41,14.42,15.56,14.42,15.7z"/>
	<path class="st1" d="M10.58,6.57c0,1.27-1.02,2.26-2.33,2.26c-1.28,0-2.36-1.03-2.36-2.26c0-1.23,1.07-2.25,2.36-2.25
		C9.59,4.32,10.58,5.28,10.58,6.57z"/>
	<path class="st1" d="M13.3,6.58c0-1.29,0.99-2.26,2.32-2.26c1.29,0,2.36,1.01,2.38,2.24c0.01,1.21-1.09,2.27-2.36,2.27
		C14.33,8.83,13.31,7.85,13.3,6.58z"/>
</g>
</svg>
