<?xml version="1.0" encoding="utf-8"?>
<!-- Generator: Adobe Illustrator 23.0.0, SVG Export Plug-In . SVG Version: 6.00 Build 0)  -->
<svg version="1.1" id="Layer_1" xmlns="http://www.w3.org/2000/svg" xmlns:xlink="http://www.w3.org/1999/xlink" x="0px" y="0px"
	 viewBox="0 0 24 24" style="enable-background:new 0 0 24 24;" xml:space="preserve">
<style type="text/css">
	.st0{fill:#FF4D03;}
	.st1{fill:#FFFFFF;}
</style>
<path class="st0" d="M21,24H3c-1.65,0-3-1.35-3-3V3c0-1.65,1.35-3,3-3h18c1.65,0,3,1.35,3,3v18C24,22.65,22.65,24,21,24z"/>
<g>
	<path class="st1" d="M11.98,1.77c5.68,0.06,10.3,4.65,10.27,10.2c-0.04,5.71-4.68,10.33-10.3,10.27
		C6.22,22.17,1.7,17.58,1.76,11.88C1.81,6.3,6.45,1.7,11.98,1.77z M21.37,12.06c0-5.19-4.19-9.43-9.35-9.44
		C6.8,2.6,2.63,6.81,2.62,12.06c0,5.12,4.2,9.32,9.34,9.33C17.12,21.39,21.36,17.18,21.37,12.06z"/>
	<path class="st1" d="M5.91,8.25c0,2.21,0,4.43,0,6.72c1.04,0,2.03,0,3.05,0c-0.01,0.47-0.17,0.65-0.59,0.64
		c-0.88-0.03-1.77-0.02-2.65,0c-0.36,0.01-0.47-0.12-0.47-0.47c0.01-2.17,0.01-4.33,0-6.5C5.25,8.14,5.5,8.12,5.91,8.25z"/>
	<polygon class="st1" points="9.1,15.52 12.36,8.17 13.03,8.17 15.41,12.72 14.99,13.39 12.75,8.99 11.26,12.35 14.6,12.35 
		14.96,13.08 10.93,13.08 9.83,15.52 	"/>
	<path class="st1" d="M18.47,9.05c0.14-0.23,0.18-0.52,0.28-0.82c-1.72,0-3.29,0-4.87,0c0.02,0.43,0.21,0.56,0.59,0.56
		c1.09-0.02,2.19-0.01,3.38-0.01c-0.83,1.33-1.6,2.58-2.45,3.94l-0.47,0.76c-0.13,0.21-0.24,0.39-0.35,0.57
		c-0.18,0.29-0.37,0.57-0.55,0.87c-0.27,0.45-0.15,0.68,0.37,0.68c1.12,0.01,2.24-0.01,3.35,0.01c0.43,0.01,0.57-0.19,0.62-0.65
		c-1.2,0-2.37,0-3.61,0c0.17-0.28,0.28-0.47,0.4-0.65C16.27,12.56,17.38,10.81,18.47,9.05z"/>
</g>
</svg>
