<?xml version="1.0" encoding="utf-8"?>
<!-- Generator: Adobe Illustrator 23.0.0, SVG Export Plug-In . SVG Version: 6.00 Build 0)  -->
<svg version="1.1" id="Layer_1" xmlns="http://www.w3.org/2000/svg" xmlns:xlink="http://www.w3.org/1999/xlink" x="0px" y="0px"
	 viewBox="0 0 24 24" style="enable-background:new 0 0 24 24;" xml:space="preserve">
<style type="text/css">
	.st0{fill:#1AA7FF;}
</style>
<g>
	<path class="st0" d="M9.22,10.37H9.01c-0.58,0-1.05,0.47-1.05,1.05v8.28c0,0.58,0.47,1.05,1.05,1.05h0.21
		c0.58,0,1.05-0.47,1.05-1.05v-8.28C10.27,10.84,9.8,10.37,9.22,10.37z"/>
	<path class="st0" d="M21.56,10.37h-0.21c-0.58,0-1.05,0.47-1.05,1.05v8.28c0,0.58,0.47,1.05,1.05,1.05h0.21
		c0.58,0,1.05-0.47,1.05-1.05v-8.28C22.61,10.84,22.13,10.37,21.56,10.37z"/>
	<path class="st0" d="M15.62,15.28l3.27-3.27c0.41-0.41,0.41-1.09,0-1.5c-0.41-0.41-1.09-0.41-1.5,0l-3.73,3.73v-2.81
		c0-0.58-0.47-1.05-1.05-1.05h-0.21c-0.58,0-1.05,0.47-1.05,1.05v8.28c0,0.58,0.47,1.05,1.05,1.05h0.21c0.58,0,1.05-0.47,1.05-1.05
		v-3.38l4.24,4.24c0.41,0.41,1.09,0.41,1.5,0c0.41-0.41,0.41-1.09,0-1.5L15.62,15.28z"/>
	<path class="st0" d="M6.52,10.37H1.05C0.47,10.37,0,10.84,0,11.42s0.47,1.05,1.05,1.05h1.63v7.36c0,0.58,0.47,1.05,1.05,1.05h0.1
		c0.58,0,1.05-0.47,1.05-1.05v-7.36h1.63c0.58,0,1.05-0.47,1.05-1.05S7.1,10.37,6.52,10.37z"/>
	<path class="st0" d="M9.08,4.27c-1.41,0-2.55,1.14-2.55,2.55s1.14,2.55,2.55,2.55s2.55-1.14,2.55-2.55S10.49,4.27,9.08,4.27z
		 M9.08,8.81c-1.1,0-1.99-0.89-1.99-1.99c0-0.07,0-0.15,0.01-0.22h3.96c0.01,0.07,0.01,0.14,0.01,0.22
		C11.08,7.92,10.18,8.81,9.08,8.81z"/>
	<path class="st0" d="M21.45,4.27c-1.41,0-2.55,1.14-2.55,2.55s1.14,2.55,2.55,2.55c1.41,0,2.55-1.14,2.55-2.55
		S22.86,4.27,21.45,4.27z M21.45,8.81c-1.1,0-1.99-0.89-1.99-1.99c0-0.07,0-0.15,0.01-0.22h3.96c0.01,0.07,0.01,0.14,0.01,0.22
		C23.45,7.92,22.55,8.81,21.45,8.81z"/>
</g>
</svg>
