<svg id="Layer_1" data-name="Layer 1" xmlns="http://www.w3.org/2000/svg" width="38" height="38" viewBox="0 0 38 38"><defs><style>.cls-1{fill:#e94f2d;}.cls-2{fill:#fff;}</style></defs><title>channel-adayroi</title><circle class="cls-1" cx="19" cy="19" r="19"/><path class="cls-2" d="M35,16.48V15.05a26.54,26.54,0,0,1,3.22,0A2.67,2.67,0,0,1,40.49,18c0,3.11,0,6.21,0,9.31V37c-1.2-.06-2.35,0-3.48-.19a2.46,2.46,0,0,1-1.76-1.47,11,11,0,0,1-8.74,1.19,10.67,10.67,0,0,1-5.68-3.81,11,11,0,0,1-.42-12.94A10.8,10.8,0,0,1,27,15.28,11.06,11.06,0,0,1,35,16.48ZM29.51,33.92c1.57-1.66,3.11-3.15,4.5-4.79a4.74,4.74,0,0,0,1-3.92,5.52,5.52,0,0,0-10.15-2.16,5.36,5.36,0,0,0,.31,6.27C26.46,30.89,28,32.31,29.51,33.92Z" transform="translate(-11.5 -7.01)"/><path class="cls-2" d="M29.48,28.7a2.72,2.72,0,1,1,0-5.44,2.72,2.72,0,1,1,0,5.44Z" transform="translate(-11.5 -7.01)"/></svg>