<?xml version="1.0" encoding="utf-8"?>
<!-- Generator: Adobe Illustrator 16.0.0, SVG Export Plug-In . SVG Version: 6.00 Build 0)  -->
<!DOCTYPE svg PUBLIC "-//W3C//DTD SVG 1.1//EN" "http://www.w3.org/Graphics/SVG/1.1/DTD/svg11.dtd">
<svg version="1.1" id="Layer_1" xmlns="http://www.w3.org/2000/svg" xmlns:xlink="http://www.w3.org/1999/xlink" x="0px" y="0px"
	 width="400px" height="361.332px" viewBox="0 0 400 361.332" enable-background="new 0 0 400 361.332" xml:space="preserve">
<g>
	<defs>
		<rect id="SVGID_1_" y="0.094" width="400" height="360.678"/>
	</defs>
	<clipPath id="SVGID_2_">
		<use xlink:href="#SVGID_1_"  overflow="visible"/>
	</clipPath>
	<g clip-path="url(#SVGID_2_)">
		<path d="M400,279.552c-5.702-8.537-12.203-16.092-19.923-22.585c-4.102-3.451-8.447-6.571-13.523-8.355
			c-8.504-2.98-17.128-2.63-25.737-0.31c-0.36,0.097-0.715,0.214-1.084,0.302c-0.09,0.027-0.202-0.024-0.455-0.065
			c-4.999-12.491-10.026-25.05-15.074-37.668c2.432,0.403,4.725,0.988,7.046,1.118c2.282,0.13,4.588-0.2,7.076-0.334
			c-1.308-19.595-2.597-38.896-3.917-58.667c-3.105,0.994-6.028,1.695-8.759,2.854c-4.502,1.912-9.099,3.836-12.501,7.503
			c-1.607,1.73-2.665,3.976-3.959,5.997c-0.279,0.432-0.51,0.891-0.883,1.55c-0.474-1.108-0.886-1.966-1.211-2.847
			c-3.041-8.229-10.638-12.969-18.832-11.137c-3.668,0.82-7.126,3.448-9.296,6.916c-0.236,0.372-1.366,0.43-1.999,0.275
			c-6.311-1.528-11.936-4.572-17.258-8.175c-5.721-3.875-11.064-8.209-15.412-13.654c-3.823-4.781-5.822-10.187-5.972-16.362
			c-0.087-3.57-0.648-7.128-1.004-10.763c1.038,0.097,2.459,0.275,3.887,0.355c4.57,0.255,9.034-0.13,13.152-2.395
			c5.582-3.07,8.245-8.167,9.53-14.102c0.42-1.939,1.172-3.366,2.936-4.309c0.992-0.528,1.927-1.187,2.799-1.898
			c3.357-2.734,4.132-6.154,2.199-10.068c-1.309-2.641-2.926-5.14-4.106-7.83c-0.806-1.833-1.091-3.889-1.609-5.833
			c0.756-0.243,1.301-0.291,1.695-0.563c7.412-5.017,12.21-14.51,5.267-24.121c-3.877-5.368-7.797-10.702-12.729-15.188
			c-10.94-9.948-23.697-12.813-37.945-9.601c-11.842,2.667-22.096,8.154-29.849,17.67c-11.541,14.161-13.171,32.674-3.306,49.408
			c2.418,4.101,5.433,7.848,8.26,11.876c-15.379,10.371-24.684,25.632-31.062,43.022c-0.14-0.093-15.264,44.382-0.454,82.972
			c0,0-8.642-0.239-18.285,0H42.988c-2.228,0-4.037,1.808-4.037,4.038v6.51c0,2.231,1.809,4.038,4.037,4.038h68.147
			c-7.454,7.653-9.063,14.148-10.62,21.613c-1.749,8.397-2.92,16.857-3.485,25.404c-0.563,8.53-0.923,17.069-0.177,25.672
			c3.413,0,13.468,0.069,16.791-0.028c1.366-0.043,1.902,0.379,2.284,1.729c5.554,19.76,24.244,32.681,44.647,30.936
			c17.762-1.518,32.819-14.043,37.418-31.297c0.466-1.736,1.184-2.177,2.807-2.111c2.669,0.102,95.296-0.531,95.282-0.716
			c0.676,0,4.896,0.691,6.446,0.234c2.801,14.454,10.598,25.11,23.769,31.539c9.789,4.78,20.089,5.532,30.5,2.401
			c12.499-3.761,21.582-11.653,26.864-23.628c5.269-11.949,4.823-23.927-0.522-35.921C388.804,283.138,394.354,281.359,400,279.552z
			 M155.17,323.588c-8.8-0.395-16.536-6.583-18.662-12.119c13.291,0,26.493,0,39.672,0
			C173.683,317.529,165.372,324.049,155.17,323.588z M227.065,97.97c7.258-5.639,11.237-12.904,10.821-22.244
			c-0.1-2.296-0.596-4.571-0.917-6.857c-0.42-2.992,0.348-4.304,3.315-4.832c6.611-1.171,12.876,0.633,19.107,2.305
			c0.385,7.723,1.033,10.204,4.151,15.825c0.626,1.128,1.339,2.209,2.005,3.309c0.538,0.873,0.496,1.608-0.457,2.171
			c-0.417,0.247-0.786,0.575-1.21,0.803c-3.855,2.063-6.011,5.155-6.829,9.558c-1.046,5.618-4.207,9.647-10.28,10.518
			c-4.901,0.705-9.635-0.165-14.253-1.827c-0.146-0.053-0.31-0.121-0.416-0.23c-2.299-2.368-4.592-4.741-6.917-7.145
			C225.763,98.91,226.432,98.463,227.065,97.97z M234.66,293.297c-1.414-5.56-10.851-59.662-10.786-59.779
			c31.411-4.488,35.252,57.019,35.896,59.685C250.122,294.321,235.345,295.981,234.66,293.297z M303.516,268.244
			c-0.566,3.966-2.771,7.191-5.335,10.134c-7.149,8.197-11.893,8.869-13.729,9.436c0,0-9.645-54.971-10.786-61.141
			c-0.446-2.43-1.326-5.385-2.118-7.392c-0.892-2.202-1.15-3.382-2.414-4.752c-4.396-4.773-9.923-7.627-15.979-9.649
			c-5.551-1.854-11.187-3.51-16.586-5.744c-5.405-2.231-10.286-5.425-13.591-10.508c-1.326-2.038-2.049-11.633-1.484-14.414
			c1.569,0.685,3.034,1.3,4.476,1.952c11.453,5.188,23.516,8.552,35.624,11.757c1.705,0.451,4.106,1.737,4.938,3.463
			c3.226,6.655,10.738,10.272,18.724,9.042c6.602-1.689,8.626-8.317,9.557-8.772c1.77,2.647,8.264,54.423,9.063,71.69
			C304.389,264.849,303.746,266.654,303.516,268.244z M316.492,194.44c-2.476-5.719-3.75-11.675-2.691-17.925
			c1.359-8.037,7.407-11.472,14.394-14.307c0.96,14.396,1.907,28.584,2.862,42.927c-2.79-0.228-5.198-1.019-7.432-2.369
			C320.341,200.77,317.998,197.924,316.492,194.44z M356.588,321.529c-13.773,9.194-32.485,0.815-35.036-15.658
			c-0.198-1.281,0.44-1.532,1.388-1.832c9.58-3.03,19.146-6.09,28.72-9.133c3.936-1.255,7.877-2.486,11.863-3.74
			C369.813,301.121,366.608,314.844,356.588,321.529z"/>
		<path d="M147.813,202.554V83.621c0-6.692-5.424-12.117-12.118-12.117H13.114c-6.692,0-12.116,5.425-12.116,12.117v118.933
			c0,6.691,5.424,12.115,12.116,12.115h122.582C142.39,214.669,147.813,209.243,147.813,202.554z"/>
	</g>
</g>
</svg>
