<?xml version="1.0" encoding="utf-8"?>
<!-- Generator: Adobe Illustrator 16.0.0, SVG Export Plug-In . SVG Version: 6.00 Build 0)  -->
<!DOCTYPE svg PUBLIC "-//W3C//DTD SVG 1.1//EN" "http://www.w3.org/Graphics/SVG/1.1/DTD/svg11.dtd">
<svg version="1.1" id="Layer_1" xmlns="http://www.w3.org/2000/svg" xmlns:xlink="http://www.w3.org/1999/xlink" x="0px" y="0px"
	 width="256px" height="256px" viewBox="0 0 256 256" enable-background="new 0 0 256 256" xml:space="preserve">
<g>
	<defs>
		<rect id="SVGID_1_" width="256" height="256"/>
	</defs>
	<clipPath id="SVGID_2_">
		<use xlink:href="#SVGID_1_"  overflow="visible"/>
	</clipPath>
	<g clip-path="url(#SVGID_2_)">
		<path fill-rule="evenodd" clip-rule="evenodd" d="M113.621,230.245c-0.175-14.572-0.211-44.917,0.011-59.489
			c0.134-8.848,6.464-14.967,14.866-15.07c8.595-0.106,15.418,6.048,15.589,14.903c0.285,14.715,0.283,44.825-0.008,59.539
			c0,15.379-13.222,15.379-15.191,15.379C126.894,245.507,113.621,245.768,113.621,230.245z"/>
		<path fill-rule="evenodd" clip-rule="evenodd" d="M156.818,212.529c0-14.238,0.036-28.007-0.009-41.775
			c-0.058-17.796-12.147-30.62-28.787-30.617c-16.574,0.004-28.867,12.951-28.958,30.629c-0.071,13.756-0.014,27.511-0.014,41.36
			c-13.167-2.622-23.547-14.946-23.726-29.171c-0.352-27.98-0.473-55.975,0.051-83.948c0.255-13.61,7.588-23.338,20.216-28.876
			c2.758-1.208,4.601-1.207,6.895,1.426c14.59,16.742,36.115,16.83,50.886,0.193c2.45-2.762,4.435-2.881,7.394-1.505
			c12.417,5.772,19.68,15.27,19.817,29.093c0.275,27.79,0.187,55.585,0.033,83.378C180.539,196.66,171.336,208.248,156.818,212.529z
			"/>
		<path fill-rule="evenodd" clip-rule="evenodd" d="M128.294,12.116c15.563,0.095,28.129,12.723,28.08,28.22
			c-0.05,15.68-12.937,28.199-28.864,28.039c-15.542-0.158-27.937-12.932-27.681-28.533
			C100.087,24.13,112.519,12.021,128.294,12.116z M111.532,39.903c-0.139,9.308,7.252,16.947,16.446,16.994
			c8.895,0.047,16.353-7.321,16.542-16.347c0.195-9.237-7.301-16.965-16.463-16.971C119.085,23.573,111.667,30.902,111.532,39.903z"
			/>
		<path fill-rule="evenodd" clip-rule="evenodd" d="M166.022,47.888c-0.681-1.096-0.852-1.246-0.867-1.412
			c-1.262-13.986-1.262-13.988,12.691-13.985c6.299,0.002,12.603-0.119,18.895,0.07c5.52,0.165,8.612,3.221,8.297,8.008
			c-0.337,5.138-3.432,7.33-8.384,7.323C186.369,47.879,176.086,47.888,166.022,47.888z"/>
		<path fill-rule="evenodd" clip-rule="evenodd" d="M90.647,32.63c0,5.289,0,9.807,0,15.061c-11.371,0-22.586,0.283-33.775-0.146
			c-4.143-0.158-6.165-3.646-5.905-7.814c0.261-4.199,2.713-6.94,6.905-7.026C68.573,32.483,79.281,32.63,90.647,32.63z"/>
	</g>
</g>
</svg>
