<?xml version="1.0" encoding="utf-8"?>
<!-- Generator: Adobe Illustrator 16.0.0, SVG Export Plug-In . SVG Version: 6.00 Build 0)  -->
<!DOCTYPE svg PUBLIC "-//W3C//DTD SVG 1.1//EN" "http://www.w3.org/Graphics/SVG/1.1/DTD/svg11.dtd">
<svg version="1.1" id="Layer_1" xmlns="http://www.w3.org/2000/svg" xmlns:xlink="http://www.w3.org/1999/xlink" x="0px" y="0px"
	 width="40px" height="40px" viewBox="0 0 40 40" enable-background="new 0 0 40 40" xml:space="preserve">
<g id="Layer_1_1_" display="none">
	<path display="inline" d="M37.137,0H2.864C1.282,0,0,1.282,0,2.864v34.271C0,38.719,1.282,40,2.864,40h34.272
		C38.719,40,40,38.719,40,37.136V2.864C40,1.282,38.719,0,37.137,0z M11.92,33.6c-1.401-0.072-2.432-1.184-2.38-2.566
		c0.05-1.338,1.25-2.432,2.596-2.372c1.374,0.063,2.481,1.213,2.446,2.54C14.547,32.563,13.315,33.673,11.92,33.6z M24.205,33.602
		c-1.391,0.004-2.52-1.075-2.539-2.425c-0.02-1.367,1.166-2.54,2.549-2.521c1.365,0.02,2.487,1.139,2.489,2.488
		C26.707,32.496,25.586,33.598,24.205,33.602z M28.904,25.49c-1.372,1.086-2.938,1.686-4.666,1.697
		c-5.004,0.039-10.011,0.02-15.015,0.011c-1.154-0.002-1.742-0.771-1.438-1.872c0.535-1.938,1.113-3.863,1.65-5.801
		c0.229-0.825,0.845-1.167,1.588-1.175c2.986-0.037,5.973-0.016,9.088-0.016c-0.302,0.976-0.548,1.881-0.88,2.754
		c-0.066,0.172-0.468,0.301-0.717,0.306c-1.659,0.026-3.319,0.067-4.974-0.009c-0.839-0.039-1.271,0.205-1.379,1.037
		c-0.041,0.314-0.155,0.62-0.263,1.041c0.364,0,0.65,0,0.938,0c3.525,0,7.051,0.041,10.573-0.031
		c0.78-0.017,1.646-0.283,2.307-0.697c1.007-0.633,1.08-1.933,0.225-2.765c-0.541-0.526-1.235-0.898-1.875-1.317
		c-0.888-0.583-1.854-1.07-2.671-1.737c-1.87-1.525-2.357-3.557-1.518-5.829c1.342-3.636,5.345-5.764,9.378-4.983
		c0.314,0.061,0.623,0.142,1.057,0.244c-0.332,1.084-0.627,2.126-0.986,3.145c-0.053,0.149-0.412,0.261-0.631,0.263
		c-0.5,0.003-1.001-0.116-1.5-0.109c-1.352,0.018-2.433,0.861-2.854,2.135c-0.251,0.757-0.145,1.428,0.479,1.925
		c0.574,0.457,1.202,0.854,1.826,1.245c0.626,0.393,1.288,0.724,1.913,1.12C32.732,18.726,31.381,23.529,28.904,25.49z"/>
	<g display="inline">
		<path d="M19.993,4.363C11.356,4.363,4.357,11.364,4.357,20c0,8.637,7.001,15.636,15.635,15.636
			c8.636,0,15.638-7.001,15.638-15.636C35.629,11.364,28.627,4.363,19.993,4.363z M14.79,25.894h-4.701H9.328l0,0V14.103h0.761
			v11.03h5.051L14.79,25.894z M30.734,14.958l-6.466,10.175h5.966l-0.35,0.761h-6.59l-0.23-0.516l0.143-0.245l1.941-3.113
			c-0.31-0.191-0.715-0.368-1.086-0.447c-0.639-0.141-1.305-0.214-1.986-0.214c-1.457,0-2.839,0.334-4.069,0.933l-1.572,3.601
			h-0.951l1.243-2.847l0.594-1.357l3.31-7.586h1.122l3.001,6.876c0,0,0.644,0.163,0.814,0.37l4.043-6.482h-6.198l-0.351-0.761h7.67
			l0,0l0,0v0.853H30.734z"/>
		<path d="M18.503,21.156c1.058-0.392,2.199-0.605,3.391-0.605c0.614,0,1.212,0.057,1.796,0.166l-2.498-5.721L18.503,21.156z"/>
		<path d="M36.705,0H3.294C1.476,0,0,1.476,0,3.294v33.411C0,38.524,1.476,40,3.294,40h33.411C38.524,40,40,38.524,40,36.705V3.294
			C40,1.476,38.524,0,36.705,0z M19.993,36.582c-9.157,0-16.581-7.425-16.581-16.582S10.835,3.418,19.993,3.418
			c9.158,0,16.582,7.424,16.582,16.582S29.15,36.582,19.993,36.582z"/>
	</g>
	<g display="inline">
		<path d="M10.889,16.089H1.556C0.697,16.089,0,16.786,0,17.645C0,18.503,0.697,19.2,1.556,19.2h2.889v12.667
			c0,0.858,0.697,1.555,1.556,1.555s1.556-0.696,1.556-1.555V19.2h3.333c0.859,0,1.556-0.697,1.556-1.556
			C12.444,16.786,11.748,16.089,10.889,16.089z"/>
		<path d="M13.333,32.8V16.711c0-0.343,0.279-0.622,0.622-0.622h1.867c0.343,0,0.622,0.279,0.622,0.622V32.8
			c0,0.343-0.279,0.622-0.622,0.622h-1.867C13.612,33.422,13.333,33.143,13.333,32.8z"/>
		<path d="M31.816,30.598l-6.137-6.559l5.422-5.074c0.621-0.594,0.645-1.579,0.049-2.199c-0.596-0.62-1.578-0.644-2.199-0.048
			l-6.729,6.295v-5.369c0-0.859-0.697-1.556-1.557-1.556c-0.858,0-1.555,0.697-1.555,1.556v14.223c0,0.858,0.697,1.555,1.555,1.555
			c0.859,0,1.557-0.696,1.557-1.555v-6.236c0.889,0.236,0.889,0.236,0.926,0.254l6.42,6.861c0.594,0.621,1.578,0.645,2.199,0.049
			C32.389,32.203,32.41,31.218,31.816,30.598z"/>
		<path d="M33.777,32.8V16.711c0-0.343,0.279-0.622,0.623-0.622h1.866c0.343,0,0.622,0.279,0.622,0.622V32.8
			c0,0.343-0.279,0.622-0.622,0.622H34.4C34.057,33.422,33.777,33.143,33.777,32.8z"/>
		<path d="M14.667,5.867c-2.455,0-4.444,1.989-4.444,4.444s1.989,4.444,4.444,4.444s4.445-1.989,4.445-4.444
			S17.122,5.867,14.667,5.867z M14.667,13.422c-1.717,0-3.111-1.394-3.111-3.111c0-0.151,0.014-0.298,0.036-0.444h6.151
			c0.021,0.146,0.036,0.293,0.036,0.444C17.778,12.028,16.384,13.422,14.667,13.422z"/>
		<path d="M35.556,5.867c-2.455,0-4.444,1.989-4.444,4.444s1.989,4.444,4.444,4.444S40,12.766,40,10.311S38.011,5.867,35.556,5.867z
			 M35.556,13.422c-1.718,0-3.111-1.394-3.111-3.111c0-0.151,0.015-0.298,0.036-0.444h6.15c0.021,0.146,0.035,0.293,0.035,0.444
			C38.666,12.028,37.273,13.422,35.556,13.422z"/>
	</g>
</g>
<g id="Layer_2">
	<g>
		<path d="M10.583,23.822c0.155,1.961-2.373,1.755-2.373,1.755c-3.045,0.103-2.528-2.892-2.528-2.892h10.786
			c0-1.703-0.052-3.406-2.116-4.49c-2.064-1.084-6.194-0.981-6.194-0.981c-4.852,0-6.349,1.136-6.349,1.136
			c-1.961,1.136-1.806,3.716-1.806,3.716c0.155,2.321-0.155,5.264,8.207,5.264c8.361,0,8.153-3.508,8.153-3.508H10.583z
			 M8.208,18.868c1.755,0,2.633,0.464,2.633,2.322H5.68C5.68,21.189,5.165,18.868,8.208,18.868z"/>
		<path d="M22.711,24.957v-3.871c-0.051-1.342-0.566-2.373-0.566-2.373c-0.825-1.497-2.477-1.342-2.477-1.342
			c-1.858,0-2.477,1.342-2.477,1.342v-5.831h-3.099v15.792h2.942v-1.239c0.825,1.601,2.633,1.445,2.633,1.445
			C22.763,29.035,22.711,24.957,22.711,24.957z M18.453,26.969c-1.315,0-1.264-2.165-1.264-2.863v-2.477
			c0-0.699-0.052-2.297,1.264-2.297c1.367,0,1.264,1.598,1.264,2.297v2.477C19.717,24.804,19.82,26.969,18.453,26.969z"/>
		<path d="M29.266,22.789v-6.761c-0.104-3.148-4.23-2.942-4.23-2.942c-4.749-0.104-4.18,3.406-4.18,3.406h2.993
			c0-0.286,0-0.362,0-0.567c0-1.188,1.188-1.136,1.188-1.136c1.188,0,1.238,0.981,1.238,0.981v1.549h-1.703
			c-4.387,0.051-4.025,3.818-4.025,3.818c0,3.716,2.943,3.458,2.943,3.458c2.219,0,2.941-1.703,2.941-1.703l0.155,1.496h2.891
			C29.317,24.184,29.266,22.789,29.266,22.789z M24.775,22.686c0,0-1.239,0.207-1.188-1.703c0,0-0.154-1.651,1.188-1.857
			c0,0,0.516-0.103,1.496-0.103v1.6C26.271,20.622,26.324,22.738,24.775,22.686z"/>
		<polygon points="25.551,11.692 29.936,11.692 32.775,18.299 35.872,11.692 40,11.692 34.582,21.963 34.582,27.383 30.557,27.383 
			30.557,21.859 		"/>
	</g>
</g>
</svg>
