<?xml version="1.0" encoding="utf-8"?>
<!-- Generator: Adobe Illustrator 16.0.0, SVG Export Plug-In . SVG Version: 6.00 Build 0)  -->
<!DOCTYPE svg PUBLIC "-//W3C//DTD SVG 1.1//EN" "http://www.w3.org/Graphics/SVG/1.1/DTD/svg11.dtd">
<svg version="1.1" xmlns="http://www.w3.org/2000/svg" xmlns:xlink="http://www.w3.org/1999/xlink" x="0px" y="0px" width="48px"
	 height="48px" viewBox="0 0 48 48" enable-background="new 0 0 48 48" xml:space="preserve">
<g id="Layer_1">
	<g>
		<path fill-rule="evenodd" clip-rule="evenodd" d="M8.59,6.273c10.273,0,20.545,0,30.818,0c0.033,0.082,0.054,0.172,0.101,0.245
			c2.749,4.164,5.499,8.328,8.253,12.489c0.058,0.087,0.157,0.147,0.237,0.221c0,7.318,0,14.636,0,21.954c-16,0-32,0-48,0
			c0-7.318,0-14.636,0-21.954c0.117-0.13,0.252-0.248,0.348-0.392c2.029-3.063,4.057-6.128,6.076-9.197
			C7.157,8.524,7.869,7.395,8.59,6.273z M2.214,38.953c14.555,0,29.06,0,43.55,0c0-5.825,0-11.604,0-17.387
			c-4.459,0-8.864,0-13.262,0c-1.418,4.065-4.175,6.496-8.534,6.482c-4.324-0.014-7.064-2.436-8.466-6.469
			c-4.415,0-8.836,0-13.289,0C2.214,27.376,2.214,33.139,2.214,38.953z M17.422,19.36c0.225,4.139,3.32,6.456,6.392,6.547
			c3.589,0.107,6.041-2.235,6.802-6.553c2.132,0,4.278,0,6.425,0c0-3.67,0-7.267,0-10.844c-8.736,0-17.424,0-26.094,0
			c0,3.637,0,7.218,0,10.849C13.115,19.36,15.244,19.36,17.422,19.36z M8.705,10.35c-0.039-0.015-0.078-0.03-0.116-0.045
			c-1.996,2.987-3.992,5.974-6.02,9.008c2.118,0,4.124,0,6.136,0C8.705,16.29,8.705,13.32,8.705,10.35z M39.322,10.175
			c0,3.16,0,6.157,0,9.152c2.037,0,4.024,0,6.118,0C43.395,16.269,41.401,13.284,39.322,10.175z"/>
	</g>
</g>
<g id="Layer_2">
</g>
</svg>
