<?xml version="1.0" encoding="utf-8"?>
<!-- Generator: Adobe Illustrator 16.0.0, SVG Export Plug-In . SVG Version: 6.00 Build 0)  -->
<!DOCTYPE svg PUBLIC "-//W3C//DTD SVG 1.1//EN" "http://www.w3.org/Graphics/SVG/1.1/DTD/svg11.dtd">
<svg version="1.1" id="Layer_1" xmlns="http://www.w3.org/2000/svg" xmlns:xlink="http://www.w3.org/1999/xlink" x="0px" y="0px"
	 width="18px" height="18px" viewBox="0 0 18 18" enable-background="new 0 0 18 18" xml:space="preserve">
<g>
	<path d="M10.643,10.006v5.139v0.678c0,0.424-0.349,0.629-0.772,0.629H7.548c-0.424,0-0.774-0.205-0.774-0.629v-0.678v-5.139H0.967
		v6.833c0,0.64,0.52,1.161,1.161,1.161h13.161c0.641,0,1.16-0.521,1.16-1.161v-6.833H10.643z"/>
	<path d="M10.577,7.58l5.753,1.572c0.162,0.023,0.318-0.067,0.364-0.234l0.326-1.188c0.05-0.18-0.051-0.356-0.231-0.403
		l-4.364-1.194c1.229,0.336,2.491-0.383,2.829-1.614c0.338-1.23-0.384-2.494-1.615-2.832c-0.665-0.181-1.354-0.071-1.875,0.312
		l-1.715,1.287L9.225,1.302C8.97,0.709,8.431,0.264,7.766,0.082C6.538-0.253,5.275,0.467,4.938,1.698
		C4.601,2.928,5.323,4.189,6.553,4.527L2.188,3.333c-0.18-0.05-0.356,0.052-0.406,0.231L1.457,4.752
		C1.412,4.916,1.499,5.076,1.654,5.14l5.752,1.571 M6.9,3.258C6.374,3.113,6.065,2.57,6.208,2.043
		C6.351,1.519,6.895,1.208,7.42,1.352c0.337,0.093,0.527,0.337,0.598,0.495l0.814,1.938L6.9,3.258z M10.846,4.337l1.678-1.259
		c0.144-0.1,0.431-0.212,0.769-0.12c0.526,0.144,0.836,0.686,0.69,1.212c-0.142,0.526-0.685,0.836-1.211,0.693L10.846,4.337z"/>
</g>
</svg>
