<?xml version="1.0" encoding="utf-8"?>
<!-- Generator: Adobe Illustrator 16.0.0, SVG Export Plug-In . SVG Version: 6.00 Build 0)  -->
<!DOCTYPE svg PUBLIC "-//W3C//DTD SVG 1.1//EN" "http://www.w3.org/Graphics/SVG/1.1/DTD/svg11.dtd">
<svg version="1.1" id="Layer_1" xmlns="http://www.w3.org/2000/svg" xmlns:xlink="http://www.w3.org/1999/xlink" x="0px" y="0px"
	 width="225px" height="225px" viewBox="0 0 225 225" enable-background="new 0 0 225 225" xml:space="preserve">
<g>
	<defs>
		<rect id="SVGID_1_" width="225" height="225"/>
	</defs>
	<clipPath id="SVGID_2_">
		<use xlink:href="#SVGID_1_"  overflow="visible"/>
	</clipPath>
	<path clip-path="url(#SVGID_2_)" d="M112.455,24.542c-48.575,0-87.954,39.38-87.954,87.956c0,48.576,39.379,87.955,87.954,87.955
		c48.576,0,87.955-39.379,87.955-87.955C200.41,63.921,161.031,24.542,112.455,24.542 M83.188,145.653H56.746h-4.277h-0.001V79.332
		h4.278v62.042h28.415L83.188,145.653z M172.876,84.145l-36.37,57.229h33.563l-1.972,4.279h-37.072l-1.293-2.898l0.802-1.381
		l10.92-17.509c-1.738-1.076-4.021-2.07-6.108-2.52c-3.594-0.792-7.338-1.2-11.167-1.2c-8.205,0-15.971,1.883-22.892,5.253
		l-8.837,20.249h-5.348l6.986-16.012l3.337-7.639l18.624-42.67h6.313l16.879,38.669c0,0,3.618,0.916,4.581,2.077l22.738-36.462
		h-34.854l-1.973-4.279h43.145V84.145z"/>
	<path clip-path="url(#SVGID_2_)" d="M104.079,119c5.946-2.202,12.365-3.401,19.071-3.401c3.456,0,6.824,0.322,10.099,0.932
		l-14.045-32.177L104.079,119z"/>
	<path clip-path="url(#SVGID_2_)" d="M206.471,0H18.529C8.296,0,0,8.296,0,18.529v187.942C0,216.704,8.296,225,18.529,225h187.941
		c10.233,0,18.529-8.296,18.529-18.529V18.529C225,8.296,216.704,0,206.471,0 M112.455,205.772
		c-51.514,0-93.272-41.761-93.272-93.273c0-51.514,41.759-93.274,93.272-93.274c51.514,0,93.273,41.76,93.273,93.274
		C205.729,164.012,163.969,205.772,112.455,205.772"/>
</g>
</svg>
