<?xml version="1.0" encoding="UTF-8"?>
<!DOCTYPE svg PUBLIC "-//W3C//DTD SVG 1.1//EN" "http://www.w3.org/Graphics/SVG/1.1/DTD/svg11.dtd">
<!-- Creator: CorelDRAW X8 -->
<svg xmlns="http://www.w3.org/2000/svg" xml:space="preserve" width="0.0533307in" height="0.0533307in" version="1.1" style="shape-rendering:geometricPrecision; text-rendering:geometricPrecision; image-rendering:optimizeQuality; fill-rule:evenodd; clip-rule:evenodd"
viewBox="0 0 53 53"
 xmlns:xlink="http://www.w3.org/1999/xlink">
 <defs>
  <style type="text/css">
   <![CDATA[
    .fil0 {fill:#999999}
   ]]>
  </style>
 </defs>
 <g id="Layer_x0020_1">
  <metadata id="CorelCorpID_0Corel-Layer"/>
  <path class="fil0" d="M27 0c-3,0 -6,2 -6,5 0,3 3,6 6,6 3,0 5,-3 5,-6 0,-3 -2,-5 -5,-5zm0 43c-3,0 -6,2 -6,5 0,3 3,5 6,5 3,0 5,-2 5,-5 0,-3 -2,-5 -5,-5zm0 -22c-3,0 -6,3 -6,6 0,3 3,5 6,5 3,0 5,-2 5,-5 0,-3 -2,-6 -5,-6z"/>
 </g>
</svg>
