<?xml version="1.0" encoding="utf-8"?>
<!-- Generator: Adobe Illustrator 16.0.0, SVG Export Plug-In . SVG Version: 6.00 Build 0)  -->
<!DOCTYPE svg PUBLIC "-//W3C//DTD SVG 1.1//EN" "http://www.w3.org/Graphics/SVG/1.1/DTD/svg11.dtd">
<svg version="1.1" id="Layer_1" xmlns="http://www.w3.org/2000/svg" xmlns:xlink="http://www.w3.org/1999/xlink" x="0px" y="0px"
	 width="200px" height="200px" viewBox="0 0 200 200" enable-background="new 0 0 200 200" xml:space="preserve">
<g>
	<defs>
		<rect id="SVGID_1_" width="201" height="201"/>
	</defs>
	<clipPath id="SVGID_2_">
		<use xlink:href="#SVGID_1_"  overflow="visible"/>
	</clipPath>
	<g clip-path="url(#SVGID_2_)">
		<path fill-rule="evenodd" clip-rule="evenodd" fill="#FFFFFF" d="M190.035,82.543c-6.689,0-12.927,0-19.162,0
			c-16.818-0.01-16.818-0.01-20.773-16.194c-3.385-13.833-46.774-49.445-61.045-47.817C74.216,20.22,59.75,25.189,44.739,28.817
			c2.105,7.003,3.658,12.179,5.264,17.513c8.068-2.197,15.206-3.313,21.65-6.067c15.276-6.526,27.277-2.405,37.625,10.323
			c-4.045,3.483-8.242,7.134-12.473,10.741c-4.256,3.623-8.641,7.111-12.81,10.834c-10.472,9.354-11.402,17.811-3.307,29.331
			c5.685,8.095,11.427,16.147,18.325,25.886c-21.342,0-40.532,0-60.066,0c0,6.361,0,11.695,0,17.784
			c21.103,0,41.564,0.464,61.997-0.163c13.073-0.404,20.517-12.26,15.998-24.595c-3.291-8.97-7.569-17.576-11.505-26.568
			c4.881-3.978,9.17-7.539,13.525-11.002c4.183-3.328,8.434-6.564,13.041-10.138c8.916,29.025,21.381,30.288,58.033,26.268
			C190.035,93.877,190.035,88.79,190.035,82.543z"/>
		<path fill-rule="evenodd" clip-rule="evenodd" fill="#FFFFFF" d="M172.508,29.358c0.316-9.696-7.537-18.025-17.287-18.325
			c-9.74-0.307-18.059,7.51-18.354,17.243c-0.294,9.695,7.569,18.063,17.271,18.375C163.789,46.963,172.186,39.06,172.508,29.358z"
			/>
		<path fill-rule="evenodd" clip-rule="evenodd" fill="#FFFFFF" d="M94.859,154.863"/>
		<path fill-rule="evenodd" clip-rule="evenodd" fill="#FFFFFF" d="M49.348,180.328"/>
		<path fill-rule="evenodd" clip-rule="evenodd" d="M191.032,82.543c0,6.247,0,11.333,0,16.419
			c-36.651,4.021-50.114,2.758-59.03-26.268c-4.607,3.574-8.858,6.81-13.041,10.138c-4.355,3.463-8.645,7.024-13.525,11.002
			c3.936,8.992,8.214,17.598,11.505,26.568c4.52,12.335-2.925,24.19-15.998,24.595c-20.432,0.627-40.894,0.163-61.997,0.163
			c0-6.089,0-11.423,0-17.784c19.534,0,38.724,0,60.066,0c-6.898-9.738-12.64-17.791-18.325-25.886
			c-8.096-11.52-7.166-19.977,3.307-29.331c4.169-3.723,8.554-7.211,12.81-10.834c4.231-3.607,8.428-7.258,12.473-10.741
			C98.93,37.858,86.929,33.736,71.653,40.263c-6.444,2.753-13.582,3.87-21.65,6.067c-1.605-5.334-3.158-10.509-5.264-17.513
			c15.01-3.628,29.477-8.597,44.315-10.285c14.271-1.628,57.66,33.984,61.045,47.817c3.955,16.185,3.955,16.185,20.773,16.194
			C177.108,82.543,184.343,82.543,191.032,82.543z"/>
		<path fill-rule="evenodd" clip-rule="evenodd" d="M172.508,29.358c-0.322,9.702-8.719,17.604-18.37,17.292
			c-9.702-0.312-17.565-8.68-17.271-18.375c0.296-9.732,8.614-17.549,18.354-17.243C164.971,11.333,172.824,19.663,172.508,29.358z"
			/>
		<polygon fill-rule="evenodd" clip-rule="evenodd" points="49.348,180.328 73.38,154.863 94.859,154.863 61.749,190.664 		"/>
		<polygon fill-rule="evenodd" clip-rule="evenodd" points="70.001,64.583 11.021,64.583 11.021,55.802 81.661,55.802 		"/>
		<path fill-rule="evenodd" clip-rule="evenodd" d="M61.641,82.426H11.021v-8.782h54.537C62.479,77.659,61.641,82.426,61.641,82.426
			z"/>
		<path fill-rule="evenodd" clip-rule="evenodd" d="M63.32,100.134H11.021v-8.781h49.502C60.755,97.598,63.32,100.134,63.32,100.134
			z"/>
	</g>
</g>
</svg>
