<?xml version="1.0" encoding="utf-8"?>
<!-- Generator: Adobe Illustrator 16.0.0, SVG Export Plug-In . SVG Version: 6.00 Build 0)  -->
<!DOCTYPE svg PUBLIC "-//W3C//DTD SVG 1.1//EN" "http://www.w3.org/Graphics/SVG/1.1/DTD/svg11.dtd">
<svg version="1.1" id="Layer_1" xmlns="http://www.w3.org/2000/svg" xmlns:xlink="http://www.w3.org/1999/xlink" x="0px" y="0px"
	 width="40px" height="40px" viewBox="0 0 40 40" enable-background="new 0 0 40 40" xml:space="preserve">
<g id="Layer_2">
	<g display="none">
		<path display="inline" fill="#010101" d="M10.597,23.311c0.154,1.962-2.375,1.756-2.375,1.756
			c-3.046,0.104-2.529-2.892-2.529-2.892h10.79c0-1.704-0.052-3.408-2.117-4.493C12.303,16.597,8.171,16.7,8.171,16.7
			c-4.854,0-6.351,1.137-6.351,1.137c-1.962,1.137-1.807,3.717-1.807,3.717c0.155,2.322-0.155,5.267,8.209,5.267
			s8.156-3.51,8.156-3.51H10.597z M8.221,18.354c1.755,0,2.634,0.464,2.634,2.322H5.692C5.692,20.677,5.176,18.354,8.221,18.354z"/>
		<path display="inline" fill="#010101" d="M22.729,24.445v-3.871c-0.052-1.343-0.567-2.375-0.567-2.375
			c-0.825-1.497-2.477-1.343-2.477-1.343c-1.858,0-2.478,1.343-2.478,1.343v-5.833h-3.1v15.798h2.944v-1.239
			c0.825,1.601,2.634,1.446,2.634,1.446C22.781,28.525,22.729,24.445,22.729,24.445z M18.47,26.459
			c-1.316,0-1.265-2.166-1.265-2.865v-2.478c0-0.699-0.051-2.298,1.265-2.298c1.368,0,1.265,1.599,1.265,2.298v2.478
			C19.735,24.293,19.838,26.459,18.47,26.459z"/>
		<path display="inline" fill="#010101" d="M29.287,22.277v-6.764c-0.104-3.149-4.232-2.943-4.232-2.943
			c-4.751-0.104-4.182,3.408-4.182,3.408h2.995c0-0.287,0-0.363,0-0.567c0-1.188,1.188-1.137,1.188-1.137
			c1.188,0,1.24,0.981,1.24,0.981v1.55h-1.704c-4.389,0.051-4.026,3.819-4.026,3.819c0,3.718,2.943,3.46,2.943,3.46
			c2.22,0,2.943-1.704,2.943-1.704l0.154,1.497h2.893C29.339,23.672,29.287,22.277,29.287,22.277z M24.795,22.175
			c0,0-1.24,0.206-1.188-1.704c0,0-0.154-1.652,1.188-1.858c0,0,0.516-0.104,1.497-0.104v1.601
			C26.292,20.109,26.344,22.227,24.795,22.175z"/>
		<polygon display="inline" fill="#010101" points="25.57,11.176 29.957,11.176 32.798,17.785 35.896,11.176 40.025,11.176 
			34.604,21.45 34.604,26.873 30.578,26.873 30.578,21.348 		"/>
	</g>
	<path fill="#010101" d="M5.833,35.631h-5.7V2.576h5.698h14.817c0,0,9.118,0,9.118,10.258c0,0-1.141,11.398-14.817,11.398h-3.418
		c0,0,11.398-2.28,11.398-10.259c0,0,1.141-10.258-17.096-10.258v18.236h2.28c0,0,1.078,3.004,3.42,5.698
		c2.78,3.199,7.979,5.698,14.816,6.838c0,0,6.839,1.141,13.679-1.14c0,0-7.979,5.698-18.236,3.42c0,0-7.979-1.14-15.957-9.118v7.98
		H5.833z"/>
</g>
</svg>
