<?xml version="1.0" encoding="utf-8"?>
<!-- Generator: Adobe Illustrator 16.0.0, SVG Export Plug-In . SVG Version: 6.00 Build 0)  -->
<!DOCTYPE svg PUBLIC "-//W3C//DTD SVG 1.1//EN" "http://www.w3.org/Graphics/SVG/1.1/DTD/svg11.dtd">
<svg version="1.1" id="Layer_1" xmlns="http://www.w3.org/2000/svg" xmlns:xlink="http://www.w3.org/1999/xlink" x="0px" y="0px"
	 width="225px" height="225px" viewBox="0 0 225 225" enable-background="new 0 0 225 225" xml:space="preserve">
<g>
	<defs>
		<rect id="SVGID_1_" width="225" height="225"/>
	</defs>
	<clipPath id="SVGID_2_">
		<use xlink:href="#SVGID_1_"  overflow="visible"/>
	</clipPath>
	<path clip-path="url(#SVGID_2_)" d="M208.888,0H16.112C7.214,0,0,7.214,0,16.112v192.776C0,217.786,7.214,225,16.112,225h192.776
		c8.898,0,16.112-7.214,16.112-16.112V16.112C225,7.214,217.786,0,208.888,0 M67.053,189.005
		c-7.883-0.407-13.684-6.661-13.394-14.44c0.28-7.519,7.029-13.684,14.604-13.342c7.727,0.349,13.96,6.82,13.764,14.293
		C81.827,183.172,74.901,189.41,67.053,189.005 M136.152,189.011c-7.82,0.019-14.17-6.046-14.277-13.635
		c-0.11-7.695,6.563-14.293,14.342-14.186c7.684,0.107,13.99,6.413,14.004,14.002C150.233,182.794,143.923,188.993,136.152,189.011
		 M162.585,143.381c-7.72,6.11-16.529,9.479-26.254,9.555c-28.153,0.222-56.31,0.112-84.465,0.057
		c-6.486-0.014-9.803-4.34-8.094-10.529c3.013-10.898,6.256-21.733,9.283-32.627c1.288-4.64,4.746-6.559,8.933-6.611
		c16.8-0.208,33.605-0.086,51.125-0.086c-1.697,5.49-3.077,10.583-4.951,15.488c-0.371,0.969-2.631,1.693-4.032,1.715
		c-9.327,0.15-18.672,0.385-27.982-0.049c-4.719-0.22-7.146,1.151-7.754,5.835c-0.231,1.772-0.868,3.492-1.481,5.857h5.278
		c19.826,0,39.656,0.229,59.472-0.179c4.391-0.09,9.262-1.587,12.979-3.922c5.657-3.556,6.071-10.869,1.256-15.546
		c-3.045-2.957-6.953-5.046-10.549-7.41c-4.994-3.284-10.418-6.021-15.021-9.774c-10.523-8.581-13.261-20.008-8.543-32.789
		c7.549-20.445,30.068-32.417,52.755-28.027c1.769,0.342,3.514,0.805,5.949,1.369c-1.866,6.105-3.527,11.963-5.553,17.693
		c-0.295,0.834-2.321,1.472-3.552,1.48c-2.813,0.018-5.633-0.647-8.444-0.612c-7.599,0.095-13.677,4.837-16.047,12.005
		c-1.408,4.261-0.813,8.031,2.7,10.829c3.233,2.574,6.763,4.797,10.271,6.998c3.52,2.206,7.255,4.07,10.76,6.298
		C184.119,105.327,176.522,132.352,162.585,143.381"/>
</g>
</svg>
