<?xml version="1.0" encoding="utf-8"?>
<!-- Generator: Adobe Illustrator 16.0.0, SVG Export Plug-In . SVG Version: 6.00 Build 0)  -->
<!DOCTYPE svg PUBLIC "-//W3C//DTD SVG 1.1//EN" "http://www.w3.org/Graphics/SVG/1.1/DTD/svg11.dtd">
<svg version="1.1" id="Layer_1" xmlns="http://www.w3.org/2000/svg" xmlns:xlink="http://www.w3.org/1999/xlink" x="0px" y="0px"
	 width="200px" height="200px" viewBox="0 0 200 200" enable-background="new 0 0 200 200" xml:space="preserve">
<g>
	<defs>
		<rect id="SVGID_1_" x="0.186" y="0.42" width="199.395" height="199.394"/>
	</defs>
	<clipPath id="SVGID_2_">
		<use xlink:href="#SVGID_1_"  overflow="visible"/>
	</clipPath>
	<g clip-path="url(#SVGID_2_)">
		<path fill-rule="evenodd" clip-rule="evenodd" d="M19.307,139.916c-0.543-44.222,35.957-80.223,80.576-80.223
			c44.602,0,81.064,35.978,80.559,80.223C127.017,139.916,73.588,139.916,19.307,139.916z"/>
		<path fill-rule="evenodd" clip-rule="evenodd" d="M189.443,150.425c0,5.859,0,10.97,0,16.665c-59.864,0-119.246,0-179.123,0
			c0-5.662,0-10.784,0-16.665C69.741,150.425,129.123,150.425,189.443,150.425z"/>
		<path fill-rule="evenodd" clip-rule="evenodd" d="M117.438,33.146c0,5.771,0,10.883,0,16.72c-11.515,0-22.886,0-34.917,0
			c0-5.462,0-10.806,0-16.72C93.969,33.146,105.055,33.146,117.438,33.146z"/>
	</g>
</g>
</svg>
