<?xml version="1.0" encoding="utf-8"?>
<!-- Generator: Adobe Illustrator 16.0.0, SVG Export Plug-In . SVG Version: 6.00 Build 0)  -->
<!DOCTYPE svg PUBLIC "-//W3C//DTD SVG 1.1//EN" "http://www.w3.org/Graphics/SVG/1.1/DTD/svg11.dtd">
<svg version="1.1" id="Layer_1" xmlns="http://www.w3.org/2000/svg" xmlns:xlink="http://www.w3.org/1999/xlink" x="0px" y="0px"
	 width="14px" height="14px" viewBox="0 0 14 14" enable-background="new 0 0 14 14" xml:space="preserve">
<g>
	<path d="M7.977,6.005h3.925c0.592,0,1.074-0.491,1.074-1.156V2.207c0-0.664-0.482-1.202-1.074-1.202H9.051
		c-0.594,0-1.074,0.538-1.074,1.202V6.005z"/>
	<path d="M6.023,6.005H2.13c-0.611,0-1.107-0.495-1.107-1.166V2.218c0-0.669,0.496-1.212,1.107-1.212h2.786
		c0.611,0,1.106,0.543,1.106,1.212V6.005z"/>
	<path d="M7.977,7.995h3.925c0.592,0,1.074,0.49,1.074,1.157v2.643c0,0.663-0.482,1.201-1.074,1.201H9.051
		c-0.594,0-1.074-0.538-1.074-1.201V7.995z"/>
	<path d="M6.023,7.994H2.13c-0.611,0-1.107,0.496-1.107,1.167v2.622c0,0.668,0.496,1.211,1.107,1.211h2.786
		c0.611,0,1.106-0.543,1.106-1.211V7.994z"/>
</g>
</svg>
